<svg width="40" height="40" viewBox="0 0 40 40" fill="none" xmlns="http://www.w3.org/2000/svg">
<mask id="mask0_630_4092" style="mask-type:luminance" maskUnits="userSpaceOnUse" x="2" y="2" width="36" height="35">
<path d="M22.5 11.6667L7.5 18.25H32.5L28.3333 12.5" stroke="white" stroke-width="2" stroke-linecap="round" stroke-linejoin="round"/>
<path d="M25.8333 14.1667C27.6743 14.1667 29.1667 12.6743 29.1667 10.8333C29.1667 8.99238 27.6743 7.5 25.8333 7.5C23.9924 7.5 22.5 8.99238 22.5 10.8333C22.5 12.6743 23.9924 14.1667 25.8333 14.1667Z" fill="white" stroke="white" stroke-width="2"/>
<path d="M27.5 7.50001L29.1667 3.33334" stroke="white" stroke-width="2" stroke-linecap="round"/>
<path d="M7.91665 22.4642C7.41498 22.7142 6.94831 22.9808 6.51831 23.2608C4.51498 24.5675 3.33331 26.1767 3.33331 27.9167C3.33331 32.2892 10.795 35.8333 20 35.8333C29.205 35.8333 36.6666 32.2892 36.6666 27.9167C36.6666 26.1333 35.4266 24.4892 33.3333 23.1658" stroke="white" stroke-width="2"/>
<path d="M7.5 18.3333H32.5V28.3333H7.5V18.3333Z" fill="#555555" stroke="white" stroke-width="2" stroke-linecap="round" stroke-linejoin="round"/>
<path d="M7.5 18.3333H33.3333" stroke="white" stroke-width="2"/>
</mask>
<g mask="url(#mask0_630_4092)">
<path d="M0 0H40V40H0V0Z" fill="black"/>
</g>
</svg>
