<svg width="387" height="224" viewBox="0 0 387 224" fill="none" xmlns="http://www.w3.org/2000/svg">
<path d="M1 211L40.5 170L72.5 188L1 211Z" fill="white" stroke="black"/>
<path d="M386.5 112C386.5 142.679 365.402 170.543 331.096 190.765C296.803 210.98 249.394 223.5 197 223.5C144.606 223.5 97.1974 210.98 62.9036 190.765C28.5985 170.543 7.5 142.679 7.5 112C7.5 81.3211 28.5985 53.4567 62.9036 33.2348C97.1974 13.0195 144.606 0.5 197 0.5C249.394 0.5 296.803 13.0195 331.096 33.2348C365.402 53.4567 386.5 81.3211 386.5 112Z" fill="white" stroke="black"/>
<path d="M38.1445 174.195C38.1777 174.191 38.2019 174.156 38.2248 174.135C38.2661 174.097 38.3077 174.059 38.3509 174.024C38.3759 174.003 38.4028 173.985 38.428 173.965C38.4476 173.949 38.4625 173.928 38.4822 173.912C38.5064 173.893 38.5322 173.876 38.5553 173.855C38.5661 173.845 38.5782 173.838 38.5896 173.829C38.602 173.82 38.5585 173.828 38.543 173.827C38.4934 173.826 38.4436 173.822 38.3943 173.817C38.3809 173.815 38.3695 173.813 38.3583 173.805C38.3461 173.796 38.3473 173.786 38.3498 173.772C38.359 173.721 38.3815 173.683 38.4232 173.653C38.4371 173.643 38.4453 173.629 38.4601 173.624C38.469 173.621 38.4772 173.611 38.4831 173.604C38.4973 173.587 38.5209 173.577 38.5382 173.564C38.5614 173.546 38.5849 173.531 38.6072 173.512C38.6344 173.488 38.6539 173.456 38.6775 173.429C38.7242 173.375 38.7715 173.324 38.8069 173.262C38.8287 173.223 38.8429 173.181 38.8674 173.144C38.8849 173.118 38.906 173.096 38.9332 173.082C39.0147 173.039 39.108 173.013 39.1953 172.984" stroke="white" stroke-linecap="round"/>
<path d="M57.4146 187.219C57.5187 187.219 57.6283 187.23 57.7312 187.212C58.2982 187.113 58.8648 186.98 59.431 186.873C59.6932 186.823 60.0666 186.751 60.3356 186.68C60.3777 186.669 60.7788 186.531 60.377 186.609C59.7051 186.738 59.0495 186.94 58.3757 187.065C57.2688 187.27 56.1616 187.364 55.0363 187.364C54.368 187.364 53.9745 187.34 53.3346 187.291C53.178 187.279 53.0211 187.269 52.8653 187.249C52.6564 187.223 52.6969 187.206 52.8691 187.167C55.2278 186.629 57.5851 186.091 59.9342 185.51C60.2142 185.441 60.5037 185.401 60.7728 185.297C60.808 185.284 60.7294 185.221 60.6918 185.218C60.3631 185.19 60.0322 185.204 59.7024 185.207C59.0645 185.212 55.4966 185.291 55.1042 185.301C53.1568 185.351 51.1519 185.321 49.2131 185.559C49.0817 185.575 48.7407 185.56 48.8287 185.659C48.9526 185.798 49.1951 185.732 49.3809 185.748C49.7826 185.782 50.1858 185.799 50.5888 185.81C51.6679 185.839 53.1382 185.829 54.2071 185.813C54.7606 185.806 55.314 185.791 55.8674 185.778C56.4622 185.763 57.06 185.682 57.652 185.742C57.6821 185.745 57.74 185.787 57.7161 185.806C57.6179 185.882 57.4886 185.906 57.375 185.957C57.2019 186.034 56.2654 186.336 56.8341 186.692C57.2754 186.967 58.3046 187.165 58.7375 187.227C59.1318 187.283 59.5304 187.31 59.9285 187.319C60.2781 187.327 61.1787 187.364 60.9537 187.097C60.8291 186.949 60.6143 186.905 60.4298 186.846C59.6929 186.612 58.2308 186.339 57.539 186.221C56.3188 186.011 55.0568 185.799 53.817 185.731C53.6751 185.723 54.0956 185.791 54.2373 185.802C54.9651 185.858 55.7011 185.851 56.4271 185.772C56.5746 185.756 56.7219 185.733 56.8662 185.699C56.9107 185.688 57.0301 185.656 56.9887 185.636C56.852 185.572 56.6929 185.572 56.5439 185.546C55.1065 185.293 53.6607 185.054 52.2133 184.867C51.9643 184.835 51.7143 184.796 51.4633 184.798C51.3586 184.799 51.6647 184.858 51.7685 184.871C53.1227 185.038 54.552 185.156 55.9145 185.026C56.1132 185.007 56.4592 185.075 56.4949 184.879C56.529 184.691 56.1716 184.668 55.9899 184.611C55.5367 184.469 55.0696 184.372 54.6029 184.283C53.9933 184.167 53.3789 184.076 52.7636 183.997C52.2515 183.931 51.7377 183.871 51.222 183.846C51.0468 183.838 50.6482 183.729 50.6981 183.897C50.7574 184.097 51.0894 184.046 51.2936 184.087C51.8091 184.192 52.3308 184.265 52.8521 184.334C54.3184 184.53 55.8339 184.708 57.3166 184.724C57.5839 184.727 56.7976 184.59 56.5326 184.555C54.5849 184.293 52.6274 184.086 50.6661 183.959C50.1635 183.927 49.6602 183.898 49.1566 183.891C48.9889 183.889 48.7214 183.779 48.6553 183.933C48.5964 184.07 48.941 184.026 49.0888 184.05C49.956 184.187 51.6242 184.334 52.4055 184.393C53.0965 184.444 53.7883 184.486 54.4804 184.519C55.0246 184.545 55.5694 184.573 56.1143 184.57C56.3176 184.568 56.5877 184.659 56.7211 184.506C56.8172 184.395 56.4566 184.374 56.314 184.34C55.5854 184.167 53.5175 183.85 52.9332 183.767C51.9597 183.628 50.1686 183.395 49.1264 183.318C48.9003 183.302 48.6604 183.242 48.4461 183.316C48.34 183.353 48.6474 183.422 48.7571 183.447C49.1659 183.537 49.5808 183.598 49.9952 183.658C51.1594 183.825 52.2903 183.942 53.4646 184.018C53.9314 184.047 54.3991 184.081 54.8667 184.072C55.1101 184.068 55.8728 184.037 55.1645 183.752C54.5646 183.51 53.0749 183.18 52.5299 183.073C52.0407 182.978 51.5482 182.898 51.0543 182.83C50.711 182.783 50.366 182.743 50.0197 182.73C49.9258 182.727 49.6943 182.703 49.7427 182.783C49.8135 182.901 49.9983 182.889 50.1328 182.919C50.7719 183.059 51.8291 183.182 52.4432 183.239C52.8702 183.279 53.2982 183.31 53.7266 183.33C54.0601 183.345 55.0132 183.398 54.7235 183.232C54.4091 183.051 52.6998 182.715 52.6938 182.713C51.2586 182.413 49.8146 182.156 48.3689 181.913C47.541 181.773 48.1689 181.886 48.3349 181.913C49.6537 182.125 50.9756 182.311 52.3038 182.455C52.6852 182.497 53.0666 182.541 53.4495 182.565C53.587 182.573 53.8652 182.687 53.8623 182.549C53.8591 182.401 53.5892 182.428 53.4458 182.387C52.7282 182.186 50.6436 181.716 50.0838 181.596C49.3611 181.441 48.637 181.292 47.9109 181.153C47.4063 181.057 45.677 180.722 44.9503 180.708C44.8882 180.707 44.7323 180.773 44.7883 180.801C45.2559 181.028 47.1743 181.401 47.3927 181.441C48.6168 181.67 50.1849 181.898 51.4293 182.037C51.8968 182.089 52.3656 182.13 52.8352 182.157C53.0773 182.172 53.3256 182.213 53.5626 182.161C53.6333 182.146 53.453 182.059 53.3836 182.039C52.0193 181.642 50.5091 181.521 49.1038 181.377C48.6475 181.331 48.1901 181.293 47.7319 181.272C47.4385 181.258 46.6261 181.216 46.8594 181.394C47.0797 181.563 48.122 181.728 48.1993 181.741C48.9813 181.874 49.8718 182.041 50.6718 181.946C51.2135 181.883 50.6725 181.587 50.4946 181.521" stroke="white" stroke-linecap="round"/>
<path d="M48.9004 181.181C48.7379 181.111 48.7377 181.107 48.5008 181.042C47.3823 180.735 46.2386 180.52 45.0993 180.309C44.4378 180.186 43.7659 180.113 43.113 179.951C42.5333 179.807 44.3081 179.93 44.9052 179.949C45.9162 179.98 47.0409 180.022 48.0486 180.062C48.5273 180.081 49.0059 180.102 49.4846 180.122C49.9312 180.141 50.3805 180.233 50.8245 180.181C51.2192 180.134 50.0316 180.122 49.6353 180.092C48.1274 179.976 46.6209 179.84 45.1125 179.73C44.7986 179.707 44.4847 179.684 44.1702 179.672C44.0497 179.667 43.8955 179.598 43.8084 179.681C43.7401 179.747 43.9887 179.74 44.0816 179.757C44.6698 179.863 45.4032 179.932 45.9775 179.977C46.4947 180.018 47.5684 180.101 48.1409 180.043C48.264 180.031 48.5466 180.038 48.4933 179.926C48.409 179.749 48.1497 179.733 47.9638 179.672C47.5319 179.529 47.0897 179.418 46.6465 179.316C45.4574 179.042 43.8563 178.758 42.6551 178.581C42.1316 178.503 41.6059 178.44 41.0796 178.385C40.8028 178.356 40.5247 178.318 40.2466 178.328C40.1698 178.331 40.3877 178.394 40.4634 178.407C41.1906 178.539 42.9538 178.734 43.4918 178.796C45.2503 178.996 47.0107 179.188 48.7722 179.361C49.0957 179.393 49.4434 179.423 48.8966 179.35C47.6235 179.178 46.3466 179.019 45.0691 178.884C44.6531 178.84 44.2372 178.792 43.8197 178.765C43.6153 178.753 43.4046 178.72 43.2053 178.767C43.1583 178.778 43.2319 178.876 43.277 178.894C43.7617 179.084 45.001 179.303 45.3989 179.361C46.1226 179.467 47.3414 179.596 48.1051 179.572C48.3045 179.566 48.5214 179.569 48.695 179.47C48.9589 179.32 48.2054 179.088 47.9148 179.001C47.1325 178.766 46.2319 178.593 45.4347 178.449C45.0282 178.375 44.6205 178.308 44.2117 178.249C43.9538 178.212 43.6949 178.18 43.4353 178.159C43.3438 178.151 43.1474 178.071 43.1601 178.162C43.1738 178.26 43.3492 178.222 43.4466 178.24C43.6701 178.28 43.8954 178.312 44.1212 178.336C45.1289 178.443 46.1642 178.514 47.1779 178.469C47.3774 178.461 47.5888 178.48 47.7734 178.404C47.8249 178.382 47.775 178.27 47.7263 178.243C47.5207 178.129 47.2885 178.068 47.0611 178.008C46.2698 177.799 45.1273 177.61 44.3361 177.503C43.5653 177.398 42.7594 177.328 41.9804 177.277C41.8305 177.267 41.6802 177.262 41.53 177.258C41.5092 177.257 41.4472 177.259 41.4678 177.262C41.5523 177.271 41.6373 177.276 41.7222 177.28C42.3279 177.314 42.9344 177.314 43.5408 177.314" stroke="white" stroke-linecap="round"/>
<path d="M44.6944 177.246C43.5602 177.226 42.4267 177.18 41.2947 177.107C40.6875 177.068 39.8414 177 39.2104 176.934C39.0555 176.917 38.6023 176.898 38.7506 176.851C39.0259 176.762 39.3252 176.783 39.6137 176.764C40.3519 176.715 41.078 176.689 41.8186 176.674C42.5786 176.658 43.1897 176.659 43.9368 176.662C44.3414 176.664 44.6342 176.673 43.9632 176.647C42.9976 176.61 42.0316 176.575 41.0667 176.523C40.8817 176.513 40.7048 176.508 40.9687 176.498C41.3769 176.482 41.7854 176.475 42.1936 176.461C42.7247 176.441 43.3391 176.419 43.8727 176.378C44.0503 176.364 44.2287 176.354 44.4041 176.323C44.4568 176.314 44.5728 176.308 44.5511 176.259C44.5214 176.192 44.4158 176.2 44.3438 176.187C44.1433 176.151 43.9398 176.131 43.737 176.11C42.8533 176.017 41.9657 175.971 41.0798 175.905C40.8994 175.891 40.7189 175.879 40.539 175.859C40.4599 175.851 40.3665 175.87 40.3034 175.822C40.2657 175.793 40.3939 175.791 40.441 175.784C40.5904 175.763 40.7411 175.752 40.8914 175.739C41.3132 175.702 42.0709 175.649 42.4782 175.603C42.5047 175.6 43.4149 175.507 43.5599 175.385C43.7223 175.247 43.2119 175.121 43.0058 175.068C42.5566 174.953 41.719 174.821 41.2721 174.755C40.9413 174.706 40.4106 174.641 40.0509 174.597C40.0076 174.592 39.9645 174.582 39.9209 174.582C39.7565 174.582 40.2473 174.62 40.4108 174.636C40.8902 174.683 41.4654 174.8 41.9467 174.725C42.5746 174.626 40.6825 174.55 40.0471 174.563C39.7776 174.569 38.9793 174.667 39.2481 174.687C39.6604 174.719 40.0675 174.582 40.4542 174.459C40.8016 174.349 40.1271 173.982 40.0038 173.92C39.7864 173.812 39.5595 173.727 39.331 173.645C39.3061 173.636 39.2328 173.619 39.2519 173.638C39.4459 173.826 39.6637 173.99 39.8587 174.178C40.183 174.492 40.4341 174.844 40.7293 175.177C40.7789 175.233 40.8074 175.306 40.8537 175.366C40.8713 175.388 40.9349 175.43 40.9065 175.434C40.7958 175.447 40.3143 175.164 40.2808 175.147C39.9489 174.984 39.6243 174.803 39.2896 174.646C39.2223 174.614 39.2229 174.579 39.1953 174.51C39.1139 174.306 39.0295 174.183 39.0295 173.956C39.0295 173.628 39.5922 174.294 39.6344 174.331C40.185 174.81 40.757 175.25 41.3701 175.646C41.5703 175.776 41.7903 175.936 42.0146 176.025" stroke="white" stroke-linecap="round"/>
<path d="M60.0449 187.587C60.0449 187.581 60.0505 187.571 60.0449 187.57C60.0212 187.563 59.9965 187.56 59.972 187.557C59.7737 187.533 59.469 187.509 59.2977 187.495C58.3478 187.422 57.3643 187.327 56.4165 187.473C56.4019 187.476 56.3749 187.465 56.3727 187.48C56.3706 187.494 56.4008 187.483 56.4148 187.484C56.4581 187.488 56.5013 187.493 56.5446 187.497C56.9591 187.532 57.374 187.549 57.7898 187.56C58.2286 187.572 58.6676 187.575 59.1063 187.59C59.1266 187.591 59.1871 187.594 59.1669 187.594C58.9679 187.602 58.7686 187.593 58.5694 187.595C58.1974 187.598 57.8666 187.601 57.4951 187.622C57.3554 187.63 57.2155 187.639 57.0766 187.656C56.9942 187.666 56.7689 187.711 56.8441 187.746C56.9065 187.775 56.9785 187.777 57.0469 187.785C57.344 187.818 57.6885 187.818 57.9806 187.814C58.5563 187.808 59.1398 187.788 59.7119 187.719C59.7646 187.712 59.8394 187.73 59.8676 187.685C59.8894 187.65 59.7874 187.666 59.7465 187.664C59.6141 187.655 59.4812 187.655 59.3486 187.653C59.1604 187.65 58.9723 187.647 58.7841 187.647C58.5914 187.647 57.8586 187.65 57.6357 187.673C57.5714 187.68 57.4309 187.664 57.4492 187.726C57.4721 187.804 57.5974 187.796 57.6768 187.813C57.9018 187.861 58.1303 187.893 58.3586 187.923C59.232 188.037 60.1147 188.097 60.9955 188.111C61.1512 188.114 61.3072 188.114 61.4626 188.104C61.523 188.1 61.6501 188.131 61.641 188.071C61.6306 188.003 61.5136 188.015 61.4464 187.998C61.057 187.898 60.4983 187.817 60.1255 187.766C59.4415 187.674 58.732 187.576 58.039 187.589C57.9928 187.59 57.8929 187.57 57.9028 187.615C57.9144 187.668 58.0034 187.657 58.0563 187.668C58.207 187.7 58.3597 187.722 58.5121 187.744C59.1288 187.832 59.7482 187.88 60.3694 187.922C60.9151 187.959 60.6332 187.952 60.2558 187.949C59.5132 187.944 58.7698 187.925 58.0271 187.939C57.8618 187.943 57.6962 187.947 57.5313 187.96C57.3661 187.974 57.1891 187.999 57.4643 188.048C58.0544 188.152 58.6803 188.138 59.2761 188.15C59.8602 188.162 60.4584 188.13 61.0414 188.18C61.0624 188.182 61.1207 188.198 61.1003 188.203C61.0124 188.227 60.92 188.228 60.8295 188.237C60.6655 188.253 60.5011 188.265 60.3369 188.278C59.8088 188.32 59.2531 188.325 58.736 188.454C58.2609 188.572 58.953 188.628 58.9798 188.63C59.6293 188.68 60.2883 188.656 60.9381 188.634C61.1509 188.626 61.3636 188.617 61.5761 188.605C61.7035 188.598 61.8311 188.591 61.9579 188.577C61.989 188.573 62.0792 188.56 62.0487 188.552C61.9594 188.531 61.8657 188.537 61.774 188.534C61.3642 188.517 60.8522 188.516 60.4537 188.517C60.0119 188.518 59.4624 188.522 59.0139 188.548C58.8803 188.555 58.7458 188.56 58.6143 188.585C58.5866 188.59 58.5245 188.617 58.5462 188.635C58.5981 188.678 58.6743 188.679 58.7408 188.69C59.2996 188.781 59.8793 188.79 60.4434 188.813C60.8432 188.828 61.2492 188.819 61.6486 188.847C61.8597 188.861 61.2266 188.878 61.0155 188.892C60.5928 188.92 60.1678 188.949 59.7487 189.013C59.7067 189.02 59.6618 189.02 59.6243 189.04C59.61 189.048 59.6546 189.053 59.6708 189.054C59.7599 189.06 59.8492 189.058 59.9384 189.059C60.5301 189.063 61.1219 189.055 61.7135 189.049C61.7908 189.048 62.4726 189.04 62.6283 189.037C62.6595 189.036 62.7526 189.037 62.7218 189.032C62.673 189.023 62.6227 189.028 62.5732 189.027C62.4302 189.026 62.2873 189.025 62.1444 189.026C61.5179 189.029 60.8915 189.044 60.2655 189.072C60.0568 189.081 59.4317 189.125 59.64 189.109C60.2229 189.065 60.8069 188.97 61.3804 188.859C61.399 188.855 61.4545 188.845 61.4356 188.846C61.3077 188.849 61.1818 188.879 61.056 188.903C60.637 188.982 60.2221 189.082 59.8157 189.212C59.7051 189.247 59.4547 189.326 59.3356 189.405C59.3142 189.419 59.2772 189.44 59.2869 189.464C59.2991 189.494 59.3441 189.495 59.3756 189.502C59.4412 189.517 59.5086 189.524 59.5756 189.528C59.9743 189.553 60.3776 189.529 60.7759 189.513C61.0811 189.501 61.3935 189.471 61.6994 189.481C61.7136 189.482 61.7526 189.485 61.7405 189.492C61.7111 189.51 61.674 189.512 61.6399 189.518C61.5547 189.534 61.469 189.547 61.3831 189.559C61.0663 189.604 60.7353 189.613 60.4223 189.68C60.3917 189.687 60.3282 189.69 60.3369 189.72C60.3478 189.757 60.4076 189.756 60.4461 189.762C60.5501 189.781 60.6559 189.789 60.7613 189.795C61.1718 189.821 61.5855 189.808 61.9935 189.757C62.0354 189.752 62.3406 189.727 62.3974 189.663C62.4203 189.637 62.3292 189.638 62.2952 189.645C62.2147 189.66 62.1739 189.715 62.0909 189.7C61.8945 189.665 61.6975 189.634 61.5048 189.582" stroke="white" stroke-linecap="round"/>
<path d="M61.2324 190.565C61.3728 190.451 61.5737 190.405 61.7331 190.324C61.8081 190.286 61.8729 190.239 61.9396 190.189C61.9767 190.161 62.0186 190.124 62.064 190.109C62.2042 190.064 62.3318 189.992 62.4619 189.923C62.6024 189.848 62.7462 189.791 62.8945 189.734C62.9204 189.724 62.9447 189.718 62.9723 189.718C63.0541 189.718 63.1305 189.684 63.1951 189.635C63.24 189.601 63.2816 189.567 63.3286 189.535C63.3844 189.497 63.4374 189.441 63.5 189.416" stroke="white" stroke-linecap="round"/>
</svg>
