<svg width="24" height="24" viewBox="0 0 24 24" fill="none" xmlns="http://www.w3.org/2000/svg">
<g clip-path="url(#clip0_717_4125)">
<path d="M7.502 0H10.08V1.078H8.58V2.156H10.08V3.234H7.502V0ZM10.595 0H13.174V0.938H11.674V1.125H13.174V3.281H10.595V2.297H12.095V2.109H10.595V0ZM13.69 0H16.267V0.938H14.767V1.125H16.267V3.281H13.69V2.297H15.19V2.109H13.69V0Z" fill="#E4E4E4"/>
<path fill-rule="evenodd" clip-rule="evenodd" d="M11.991 24L5.047 22.072L3 4.71701H21L18.954 22.07L11.991 24ZM7.047 12.573L7.238 14.701H14.615L14.368 17.461L11.994 18.103H11.992L9.622 17.463L9.47 15.766H7.333L7.631 19.108L11.991 20.318L16.358 19.108L16.89 13.144L16.942 12.573L17.326 8.26401H6.664L6.858 10.393H14.994L14.8 12.573H7.047Z" fill="#E4E4E4"/>
</g>
<defs>
<clipPath id="clip0_717_4125">
<rect width="24" height="24" fill="white"/>
</clipPath>
</defs>
</svg>
