<svg width="92" height="88" viewBox="0 0 92 88" fill="none" xmlns="http://www.w3.org/2000/svg">
<g filter="url(#filter0_d_676_4836)">
<circle cx="4" cy="4" r="2" fill="#E4E4E4"/>
<circle cx="23.8495" cy="4" r="2" fill="#E4E4E4"/>
<circle cx="43.6992" cy="4" r="2" fill="#E4E4E4"/>
<circle cx="63.5487" cy="4" r="2" fill="#E4E4E4"/>
<circle cx="83.3983" cy="4" r="2" fill="#E4E4E4"/>
<circle cx="4" cy="22.8271" r="2" fill="#E4E4E4"/>
<circle cx="23.8495" cy="22.8271" r="2" fill="#E4E4E4"/>
<circle cx="43.6992" cy="22.8271" r="2" fill="#E4E4E4"/>
<circle cx="63.5487" cy="22.8271" r="2" fill="#E4E4E4"/>
<circle cx="83.3983" cy="22.8271" r="2" fill="#E4E4E4"/>
<circle cx="4" cy="41.6542" r="2" fill="#E4E4E4"/>
<circle cx="23.8495" cy="41.6542" r="2" fill="#E4E4E4"/>
<circle cx="43.6992" cy="41.6542" r="2" fill="#E4E4E4"/>
<circle cx="63.5487" cy="41.6542" r="2" fill="#E4E4E4"/>
<circle cx="83.3983" cy="41.6542" r="2" fill="#E4E4E4"/>
<circle cx="4" cy="60.4814" r="2" fill="#E4E4E4"/>
<circle cx="23.8495" cy="60.4814" r="2" fill="#E4E4E4"/>
<circle cx="43.6992" cy="60.4814" r="2" fill="#E4E4E4"/>
<circle cx="63.5487" cy="60.4814" r="2" fill="#E4E4E4"/>
<circle cx="83.3983" cy="60.4814" r="2" fill="#E4E4E4"/>
<circle cx="4" cy="79.3085" r="2" fill="#E4E4E4"/>
<circle cx="23.8495" cy="79.3085" r="2" fill="#E4E4E4"/>
<circle cx="43.6992" cy="79.3085" r="2" fill="#E4E4E4"/>
<circle cx="63.5487" cy="79.3085" r="2" fill="#E4E4E4"/>
<circle cx="83.3983" cy="79.3085" r="2" fill="#E4E4E4"/>
</g>
<defs>
<filter id="filter0_d_676_4836" x="0" y="0" width="91.3983" height="87.3085" filterUnits="userSpaceOnUse" color-interpolation-filters="sRGB">
<feFlood flood-opacity="0" result="BackgroundImageFix"/>
<feColorMatrix in="SourceAlpha" type="matrix" values="0 0 0 0 0 0 0 0 0 0 0 0 0 0 0 0 0 0 127 0" result="hardAlpha"/>
<feOffset dx="2" dy="2"/>
<feGaussianBlur stdDeviation="2"/>
<feComposite in2="hardAlpha" operator="out"/>
<feColorMatrix type="matrix" values="0 0 0 0 0.894118 0 0 0 0 0.894118 0 0 0 0 0.894118 0 0 0 0.61 0"/>
<feBlend mode="normal" in2="BackgroundImageFix" result="effect1_dropShadow_676_4836"/>
<feBlend mode="normal" in="SourceGraphic" in2="effect1_dropShadow_676_4836" result="shape"/>
</filter>
</defs>
</svg>
