<svg width="360" height="336" viewBox="0 0 360 336" fill="none" xmlns="http://www.w3.org/2000/svg">
<g filter="url(#filter0_d_630_4116)">
<circle cx="6" cy="2" r="2" fill="black"/>
<circle cx="93" cy="2" r="2" fill="black"/>
<circle cx="180" cy="2" r="2" fill="black"/>
<circle cx="267" cy="2" r="2" fill="black"/>
<circle cx="354" cy="2" r="2" fill="black"/>
<circle cx="6" cy="83" r="2" fill="black"/>
<circle cx="93" cy="83" r="2" fill="black"/>
<circle cx="180" cy="83" r="2" fill="black"/>
<circle cx="267" cy="83" r="2" fill="black"/>
<circle cx="354" cy="83" r="2" fill="black"/>
<circle cx="6" cy="164" r="2" fill="black"/>
<circle cx="93" cy="164" r="2" fill="black"/>
<circle cx="180" cy="164" r="2" fill="black"/>
<circle cx="267" cy="164" r="2" fill="black"/>
<circle cx="354" cy="164" r="2" fill="black"/>
<circle cx="6" cy="245" r="2" fill="black"/>
<circle cx="93" cy="245" r="2" fill="black"/>
<circle cx="180" cy="245" r="2" fill="black"/>
<circle cx="267" cy="245" r="2" fill="black"/>
<circle cx="354" cy="245" r="2" fill="black"/>
<circle cx="6" cy="326" r="2" fill="black"/>
<circle cx="93" cy="326" r="2" fill="black"/>
<circle cx="180" cy="326" r="2" fill="black"/>
<circle cx="267" cy="326" r="2" fill="black"/>
<circle cx="354" cy="326" r="2" fill="black"/>
</g>
<defs>
<filter id="filter0_d_630_4116" x="0" y="0" width="360" height="336" filterUnits="userSpaceOnUse" color-interpolation-filters="sRGB">
<feFlood flood-opacity="0" result="BackgroundImageFix"/>
<feColorMatrix in="SourceAlpha" type="matrix" values="0 0 0 0 0 0 0 0 0 0 0 0 0 0 0 0 0 0 127 0" result="hardAlpha"/>
<feOffset dy="4"/>
<feGaussianBlur stdDeviation="2"/>
<feComposite in2="hardAlpha" operator="out"/>
<feColorMatrix type="matrix" values="0 0 0 0 0 0 0 0 0 0 0 0 0 0 0 0 0 0 0.25 0"/>
<feBlend mode="normal" in2="BackgroundImageFix" result="effect1_dropShadow_630_4116"/>
<feBlend mode="normal" in="SourceGraphic" in2="effect1_dropShadow_630_4116" result="shape"/>
</filter>
</defs>
</svg>
