<svg width="84" height="81" viewBox="0 0 84 81" fill="none" xmlns="http://www.w3.org/2000/svg">
<circle cx="2" cy="2.83685" r="2" fill="#4A4A4A"/>
<circle cx="21.8495" cy="2.83685" r="2" fill="#4A4A4A"/>
<circle cx="41.6992" cy="2.83685" r="2" fill="#4A4A4A"/>
<circle cx="61.5487" cy="2.83685" r="2" fill="#4A4A4A"/>
<circle cx="81.3983" cy="2.83685" r="2" fill="#4A4A4A"/>
<circle cx="2" cy="21.664" r="2" fill="#4A4A4A"/>
<circle cx="21.8495" cy="21.664" r="2" fill="#4A4A4A"/>
<circle cx="41.6992" cy="21.664" r="2" fill="#4A4A4A"/>
<circle cx="61.5487" cy="21.664" r="2" fill="#4A4A4A"/>
<circle cx="81.3983" cy="21.664" r="2" fill="#4A4A4A"/>
<circle cx="2" cy="40.4911" r="2" fill="#4A4A4A"/>
<circle cx="21.8495" cy="40.4911" r="2" fill="#4A4A4A"/>
<circle cx="41.6992" cy="40.4911" r="2" fill="#4A4A4A"/>
<circle cx="61.5487" cy="40.4911" r="2" fill="#4A4A4A"/>
<circle cx="81.3983" cy="40.4911" r="2" fill="#4A4A4A"/>
<circle cx="2" cy="59.3182" r="2" fill="#4A4A4A"/>
<circle cx="21.8495" cy="59.3182" r="2" fill="#4A4A4A"/>
<circle cx="41.6992" cy="59.3182" r="2" fill="#4A4A4A"/>
<circle cx="61.5487" cy="59.3182" r="2" fill="#4A4A4A"/>
<circle cx="81.3983" cy="59.3182" r="2" fill="#4A4A4A"/>
<circle cx="2" cy="78.1454" r="2" fill="#4A4A4A"/>
<circle cx="21.8495" cy="78.1454" r="2" fill="#4A4A4A"/>
<circle cx="41.6992" cy="78.1454" r="2" fill="#4A4A4A"/>
<circle cx="61.5487" cy="78.1454" r="2" fill="#4A4A4A"/>
<circle cx="81.3983" cy="78.1454" r="2" fill="#4A4A4A"/>
</svg>
