<svg width="40" height="40" viewBox="0 0 40 40" fill="none" xmlns="http://www.w3.org/2000/svg">
<path d="M20.25 35L36.25 17C37.75 15.25 37.75 12.5 36 10.75L29.25 4C28.5 3 27.25 2.5 26 2.5H21.5C20.25 2.5 19 3 18 4L1.24997 23C-0.250026 24.75 -0.250026 27.75 1.49997 29.25L8.24997 36C8.99997 37 10.25 37.5 11.5 37.5H40V35H20.25ZM17 34.75L10.25 28C9.24997 27 9.24997 25.75 10.25 24.75L18.75 15H16.25L8.74997 23.25C7.24997 25 7.24997 27.5 8.99997 29.25L14.75 35H11.5C11 35 10.5 34.75 9.99997 34.5L2.99997 27.5C2.24997 26.75 2.24997 25.5 2.99997 24.75L11.75 15H16.25L25 5H27.5L18.75 15L26.5 24.25L17.75 34.25C17.5 34.5 17.25 34.5 17 34.75Z" fill="black"/>
</svg>
