<svg width="152" height="144" viewBox="0 0 152 144" fill="none" xmlns="http://www.w3.org/2000/svg">
<mask id="path-1-inside-1_676_4840" fill="white">
<path fill-rule="evenodd" clip-rule="evenodd" d="M76.6505 0.748169H114.047L151.444 0.748181V36.3111V71.8741V107.437H114.047H76.6505V71.8741H114.047L114.047 36.3111H76.6505V0.748169Z"/>
</mask>
<path d="M114.047 0.748169L114.047 -0.251831H114.047V0.748169ZM76.6505 0.748169V-0.251831H75.6505V0.748169H76.6505ZM151.444 0.748181H152.444V-0.251819L151.444 -0.251819L151.444 0.748181ZM151.444 107.437V108.437H152.444V107.437H151.444ZM76.6505 107.437H75.6505V108.437H76.6505V107.437ZM76.6505 71.8741V70.8741H75.6505V71.8741H76.6505ZM114.047 71.8741V72.8741H115.047L115.047 71.8741L114.047 71.8741ZM114.047 36.3111L115.047 36.3111L115.047 35.3111H114.047V36.3111ZM76.6505 36.3111H75.6505V37.3111H76.6505V36.3111ZM114.047 -0.251831H76.6505V1.74817H114.047V-0.251831ZM151.444 -0.251819L114.047 -0.251831L114.047 1.74817L151.444 1.74818L151.444 -0.251819ZM152.444 36.3111V0.748181H150.444V36.3111H152.444ZM152.444 71.8741V36.3111H150.444V71.8741H152.444ZM152.444 107.437V71.8741H150.444V107.437H152.444ZM114.047 108.437H151.444V106.437H114.047V108.437ZM114.047 106.437H76.6505V108.437H114.047V106.437ZM77.6505 107.437V71.8741H75.6505V107.437H77.6505ZM76.6505 72.8741H114.047V70.8741H76.6505V72.8741ZM113.047 36.3111L113.047 71.8741L115.047 71.8741L115.047 36.3111L113.047 36.3111ZM76.6505 37.3111H114.047V35.3111H76.6505V37.3111ZM75.6505 0.748169V36.3111H77.6505V0.748169H75.6505Z" fill="#822E3B" mask="url(#path-1-inside-1_676_4840)"/>
<mask id="path-3-outside-2_676_4840" maskUnits="userSpaceOnUse" x="0.85675" y="35.3112" width="77" height="109" fill="black">
<rect fill="white" x="0.85675" y="35.3112" width="77" height="109"/>
<path fill-rule="evenodd" clip-rule="evenodd" d="M39.2536 36.3112H76.6504V71.8742H39.2536V107.437H76.6504V143H39.2536H1.85675V107.437L1.85677 71.8742V36.3112L39.2536 36.3112Z"/>
</mask>
<path d="M76.6504 36.3112H77.6504V35.3112H76.6504V36.3112ZM39.2536 36.3112L39.2536 35.3112L39.2536 35.3112L39.2536 36.3112ZM76.6504 71.8742V72.8742H77.6504V71.8742H76.6504ZM39.2536 71.8742V70.8742H38.2536V71.8742H39.2536ZM39.2536 107.437H38.2536V108.437H39.2536V107.437ZM76.6504 107.437H77.6504V106.437H76.6504V107.437ZM76.6504 143V144H77.6504V143H76.6504ZM1.85675 143H0.85675V144H1.85675V143ZM1.85675 107.437L0.85675 107.437V107.437H1.85675ZM1.85677 71.8742L2.85677 71.8742V71.8742H1.85677ZM1.85677 36.3112L1.85677 35.3112L0.856767 35.3112V36.3112H1.85677ZM76.6504 35.3112H39.2536V37.3112H76.6504V35.3112ZM77.6504 71.8742V36.3112H75.6504V71.8742H77.6504ZM39.2536 72.8742H76.6504V70.8742H39.2536V72.8742ZM40.2536 107.437V71.8742H38.2536V107.437H40.2536ZM39.2536 108.437H76.6504V106.437H39.2536V108.437ZM75.6504 107.437V143H77.6504V107.437H75.6504ZM76.6504 142H39.2536V144H76.6504V142ZM1.85675 144H39.2536V142H1.85675V144ZM0.85675 107.437V143H2.85675V107.437H0.85675ZM0.856767 71.8742L0.85675 107.437L2.85675 107.437L2.85677 71.8742L0.856767 71.8742ZM0.856767 36.3112V71.8742H2.85677V36.3112H0.856767ZM39.2536 35.3112L1.85677 35.3112L1.85677 37.3112L39.2536 37.3112L39.2536 35.3112Z" fill="#822E3B" mask="url(#path-3-outside-2_676_4840)"/>
</svg>
