<svg width="159" height="152" viewBox="0 0 159 152" fill="none" xmlns="http://www.w3.org/2000/svg">
<g filter="url(#filter0_d_676_4840)">
<mask id="path-1-inside-1_676_4840" fill="white">
<path fill-rule="evenodd" clip-rule="evenodd" d="M75.7937 1.52588e-05H113.191L150.587 2.72173e-05V35.563V71.1259V106.689H113.191H75.7937V71.1259H113.191L113.191 35.563H75.7937V1.52588e-05Z"/>
</mask>
<path d="M113.191 1.52588e-05V-0.999985V1.52588e-05ZM75.7937 1.52588e-05V-0.999985H74.7937V1.52588e-05H75.7937ZM150.587 2.72173e-05H151.587V-0.999972L150.587 -0.999973V2.72173e-05ZM150.587 106.689V107.689H151.587V106.689H150.587ZM75.7937 106.689H74.7937V107.689H75.7937V106.689ZM75.7937 71.1259V70.1259H74.7937V71.1259H75.7937ZM113.191 71.1259V72.1259H114.191V71.1259H113.191ZM113.191 35.563H114.191V34.563H113.191V35.563ZM75.7937 35.563H74.7937V36.563H75.7937V35.563ZM113.191 -0.999985H75.7937V1.00002H113.191V-0.999985ZM150.587 -0.999973L113.191 -0.999985V1.00002L150.587 1.00003V-0.999973ZM151.587 35.563V2.72173e-05H149.587V35.563H151.587ZM151.587 71.1259V35.563H149.587V71.1259H151.587ZM151.587 106.689V71.1259H149.587V106.689H151.587ZM113.191 107.689H150.587V105.689H113.191V107.689ZM113.191 105.689H75.7937V107.689H113.191V105.689ZM76.7937 106.689V71.1259H74.7937V106.689H76.7937ZM75.7937 72.1259H113.191V70.1259H75.7937V72.1259ZM112.191 35.563L112.191 71.1259H114.191L114.191 35.563H112.191ZM75.7937 36.563H113.191V34.563H75.7937V36.563ZM74.7937 1.52588e-05V35.563H76.7937V1.52588e-05H74.7937Z" fill="#822E3B" mask="url(#path-1-inside-1_676_4840)"/>
<mask id="path-3-outside-2_676_4840" maskUnits="userSpaceOnUse" x="0" y="34.563" width="77" height="109" fill="black">
<rect fill="white" y="34.563" width="77" height="109"/>
<path fill-rule="evenodd" clip-rule="evenodd" d="M38.3968 35.563H75.7937V71.126H38.3968V106.689H75.7937V142.252H38.3968H1V106.689L1.00002 71.126V35.563L38.3968 35.563Z"/>
</mask>
<path d="M75.7937 35.563H76.7937V34.563H75.7937V35.563ZM38.3968 35.563V34.563V35.563ZM75.7937 71.126V72.126H76.7937V71.126H75.7937ZM38.3968 71.126V70.126H37.3968V71.126H38.3968ZM38.3968 106.689H37.3968V107.689H38.3968V106.689ZM75.7937 106.689H76.7937V105.689H75.7937V106.689ZM75.7937 142.252V143.252H76.7937V142.252H75.7937ZM1 142.252H0V143.252H1V142.252ZM1 106.689H0H1ZM1.00002 71.126H2.00002H1.00002ZM1.00002 35.563L1.00002 34.563L1.69873e-05 34.563V35.563H1.00002ZM75.7937 34.563H38.3968V36.563H75.7937V34.563ZM76.7937 71.126V35.563H74.7937V71.126H76.7937ZM38.3968 72.126H75.7937V70.126H38.3968V72.126ZM39.3968 106.689V71.126H37.3968V106.689H39.3968ZM38.3968 107.689H75.7937V105.689H38.3968V107.689ZM74.7937 106.689V142.252H76.7937V106.689H74.7937ZM75.7937 141.252H38.3968V143.252H75.7937V141.252ZM1 143.252H38.3968V141.252H1V143.252ZM0 106.689V142.252H2V106.689H0ZM1.69873e-05 71.126L0 106.689H2L2.00002 71.126L1.69873e-05 71.126ZM1.69873e-05 35.563V71.126H2.00002V35.563H1.69873e-05ZM38.3968 34.563L1.00002 34.563L1.00002 36.563L38.3969 36.563L38.3968 34.563Z" fill="#822E3B" mask="url(#path-3-outside-2_676_4840)"/>
</g>
<defs>
<filter id="filter0_d_676_4840" x="0" y="1.52588e-05" width="158.587" height="151.252" filterUnits="userSpaceOnUse" color-interpolation-filters="sRGB">
<feFlood flood-opacity="0" result="BackgroundImageFix"/>
<feColorMatrix in="SourceAlpha" type="matrix" values="0 0 0 0 0 0 0 0 0 0 0 0 0 0 0 0 0 0 127 0" result="hardAlpha"/>
<feOffset dx="4" dy="4"/>
<feGaussianBlur stdDeviation="2"/>
<feComposite in2="hardAlpha" operator="out"/>
<feColorMatrix type="matrix" values="0 0 0 0 0.509804 0 0 0 0 0.180392 0 0 0 0 0.231373 0 0 0 0.61 0"/>
<feBlend mode="normal" in2="BackgroundImageFix" result="effect1_dropShadow_676_4840"/>
<feBlend mode="normal" in="SourceGraphic" in2="effect1_dropShadow_676_4840" result="shape"/>
</filter>
</defs>
</svg>
