<svg width="21" height="27" viewBox="0 0 21 27" fill="none" xmlns="http://www.w3.org/2000/svg">
<path d="M11.25 0V6.5625C11.25 7.30842 11.5463 8.02379 12.0738 8.55124C12.6012 9.07868 13.3166 9.375 14.0625 9.375H20.625V23.4375C20.625 24.1834 20.3287 24.8988 19.8012 25.4262C19.2738 25.9537 18.5584 26.25 17.8125 26.25H2.8125C2.06658 26.25 1.35121 25.9537 0.823762 25.4262C0.296316 24.8988 0 24.1834 0 23.4375V2.8125C0 2.06658 0.296316 1.35121 0.823762 0.823762C1.35121 0.296316 2.06658 0 2.8125 0H11.25ZM13.125 0.109688V6.5625C13.125 6.81114 13.2238 7.0496 13.3996 7.22541C13.5754 7.40123 13.8139 7.5 14.0625 7.5H20.5153C20.3837 7.04194 20.1379 6.62482 19.8009 6.28781L14.3372 0.825C14.0003 0.487677 13.5832 0.241531 13.125 0.109688Z" fill="#E4E4E4"/>
</svg>
