<svg width="30" height="24" viewBox="0 0 30 24" fill="none" xmlns="http://www.w3.org/2000/svg">
<path d="M30 3.27973V21.8271C30 23.0326 29.085 24.0087 27.955 24.0087H23.1813V11.6446L15 18.192L6.81875 11.6446V24.01H2.045C1.77634 24.01 1.51032 23.9535 1.26212 23.8438C1.01393 23.7341 0.788437 23.5733 0.598525 23.3706C0.408613 23.1678 0.258005 22.9272 0.155308 22.6624C0.0526105 22.3975 -0.000163835 22.1137 3.82064e-07 21.8271V3.27973C3.82064e-07 0.582105 2.88625 -0.958063 4.90875 0.66078L6.81875 2.19028L15 8.735L23.1813 2.18761L25.0912 0.66078C27.1125 -0.95673 30 0.582105 30 3.27973Z" fill="#E4E4E4"/>
</svg>
