<svg width="40" height="40" viewBox="0 0 40 40" fill="none" xmlns="http://www.w3.org/2000/svg">
<path d="M7.34802 1.71094L1.48419 7.575L4.82224 9.41875L2.71443 11.5244L11.1211 16.593C7.96146 22.0733 8.72107 29.1766 13.4023 33.8553C18.9965 39.4495 28.0693 39.448 33.6645 33.8553C39.2598 28.2626 39.2615 19.1948 33.6674 13.6038C28.9865 8.92578 21.8786 8.16859 16.3952 11.3243L11.3242 2.92305L10.6648 3.5818L9.21263 5.03258L7.34802 1.71094ZM11.0374 5.27328L15.9075 13.3416L16.5401 12.9316C19.994 10.6923 24.2756 10.272 28.0375 11.6755C27.9468 11.6735 27.8556 11.6724 27.7638 11.6724C24.7179 11.6724 22.2486 12.8292 22.2486 14.2563C22.2486 15.6836 24.7179 16.8402 27.7638 16.8402C30.2271 16.8402 32.3126 16.0837 33.0206 15.0395C34.2661 16.3941 35.1684 17.9476 35.7276 19.5905C35.1214 19.3259 34.2995 19.0666 33.3134 18.8434C30.8616 18.2887 27.4113 17.9359 23.6021 17.9359C19.7929 17.9359 16.3427 18.2886 13.8908 18.8434C12.8197 19.0857 11.9379 19.3707 11.3211 19.6588C11.6646 18.6296 12.1376 17.6482 12.7287 16.7383L13.1399 16.1052L5.06724 11.238L6.15271 10.1536L9.81966 12.1788L12.0004 9.99797L9.95513 6.35461L11.0376 5.2732L11.0374 5.27328ZM10.9525 20.9988C10.9901 21.0207 11.0292 21.0426 11.0701 21.0645C11.6865 21.3941 12.6647 21.7275 13.8907 22.0048C16.3425 22.5595 19.7928 22.9123 23.6019 22.9123C27.4111 22.9123 30.8615 22.5596 33.3133 22.0048C34.5388 21.7275 35.5166 21.3945 36.1331 21.0648C36.2295 21.52 36.3012 21.9801 36.3476 22.4431C35.6108 22.7773 34.6911 23.0598 33.6075 23.305C31.0133 23.892 27.4926 24.2454 23.602 24.2454C19.7112 24.2454 16.1906 23.892 13.5965 23.305C12.4504 23.0456 11.4872 22.7448 10.7301 22.385C10.7789 21.9192 10.8531 21.4564 10.9524 20.9987L10.9525 20.9988Z" fill="#822E3B"/>
</svg>
